<svg width="24" height="25" viewBox="0 0 24 25" fill="none" xmlns="http://www.w3.org/2000/svg">
<path fill-rule="evenodd" clip-rule="evenodd" d="M12 4.10022C12.4971 4.10022 12.9 4.50316 12.9 5.00022L12.9 17.7657L17.6513 12.7764C17.9958 12.4181 18.5655 12.407 18.9238 12.7515C19.2821 13.096 19.2933 13.6657 18.9488 14.024L12.6488 20.624C12.4791 20.8005 12.2448 20.9002 12 20.9002C11.7552 20.9002 11.5209 20.8005 11.3513 20.624L5.05125 14.024C4.70674 13.6657 4.71791 13.096 5.07621 12.7515C5.4345 12.407 6.00424 12.4181 6.34875 12.7764L11.1 17.7657L11.1 5.00022C11.1 4.50316 11.5029 4.10022 12 4.10022Z" fill="white"/>
</svg>
