<svg width="24" height="25" viewBox="0 0 24 25" fill="none" xmlns="http://www.w3.org/2000/svg">
<path fill-rule="evenodd" clip-rule="evenodd" d="M12 20.9002C11.5029 20.9002 11.1 20.4973 11.1 20.0002L11.1 7.23471L6.34874 12.224C6.00423 12.5823 5.43449 12.5935 5.0762 12.249C4.7179 11.9044 4.70673 11.3347 5.05124 10.9764L11.3512 4.37641C11.5209 4.19994 11.7552 4.10021 12 4.10021C12.2448 4.10021 12.4791 4.19994 12.6487 4.37641L18.9487 10.9764C19.2933 11.3347 19.2821 11.9044 18.9238 12.249C18.5655 12.5935 17.9958 12.5823 17.6512 12.224L12.9 7.23471L12.9 20.0002C12.9 20.4973 12.4971 20.9002 12 20.9002Z" fill="#0168FF"/>
</svg>
