<svg width="20" height="20" viewBox="0 0 20 20" fill="none" xmlns="http://www.w3.org/2000/svg">
<path d="M6.55326 3.5355C7.5413 2.8811 8.72615 2.5 10 2.5C13.4518 2.5 16.25 5.29822 16.25 8.75C16.25 11.1828 15.7869 13.5074 14.9437 15.6404M4.7855 5.30326C4.1311 6.2913 3.75 7.47615 3.75 8.75C3.75 9.97305 3.39896 11.1141 2.79175 12.0776M4.44908 15.0433C5.95676 13.3796 6.875 11.1721 6.875 8.75C6.875 7.02411 8.27411 5.625 10 5.625C11.7259 5.625 13.125 7.02411 13.125 8.75C13.125 9.18909 13.1072 9.62395 13.0716 10.0539M10.0003 8.75C10.0003 11.8522 8.87021 14.6904 6.9993 16.8755M12.5275 13.0452C12.071 14.6453 11.3659 16.1405 10.4566 17.4863" stroke="#141414" stroke-width="1.5" stroke-linecap="round" stroke-linejoin="round"/>
</svg>
