<svg width="24" height="24" viewBox="0 0 24 24" fill="none" xmlns="http://www.w3.org/2000/svg">
<g clip-path="url(#clip0_12_573)">
<rect width="24" height="24" transform="translate(-0.000244141 0.00012207)" fill="white" fill-opacity="0.01"/>
<path d="M3.74976 6.00012C3.74976 4.75748 4.75712 3.75012 5.99976 3.75012H8.24976C9.4924 3.75012 10.4998 4.75748 10.4998 6.00012V8.25012C10.4998 9.49276 9.4924 10.5001 8.24976 10.5001H5.99976C4.75712 10.5001 3.74976 9.49276 3.74976 8.25012V6.00012Z" stroke="#141414" stroke-width="1.5" stroke-linecap="round" stroke-linejoin="round"/>
<path d="M3.74976 15.7501C3.74976 14.5075 4.75712 13.5001 5.99976 13.5001H8.24976C9.4924 13.5001 10.4998 14.5075 10.4998 15.7501V18.0001C10.4998 19.2428 9.4924 20.2501 8.24976 20.2501H5.99976C4.75712 20.2501 3.74976 19.2428 3.74976 18.0001V15.7501Z" stroke="#141414" stroke-width="1.5" stroke-linecap="round" stroke-linejoin="round"/>
<path d="M13.4998 6.00012C13.4998 4.75748 14.5071 3.75012 15.7498 3.75012H17.9998C19.2424 3.75012 20.2498 4.75748 20.2498 6.00012V8.25012C20.2498 9.49276 19.2424 10.5001 17.9998 10.5001H15.7498C14.5071 10.5001 13.4998 9.49276 13.4998 8.25012V6.00012Z" stroke="#141414" stroke-width="1.5" stroke-linecap="round" stroke-linejoin="round"/>
<path d="M13.4998 15.7501C13.4998 14.5075 14.5071 13.5001 15.7498 13.5001H17.9998C19.2424 13.5001 20.2498 14.5075 20.2498 15.7501V18.0001C20.2498 19.2428 19.2424 20.2501 17.9998 20.2501H15.7498C14.5071 20.2501 13.4998 19.2428 13.4998 18.0001V15.7501Z" stroke="#141414" stroke-width="1.5" stroke-linecap="round" stroke-linejoin="round"/>
</g>
<defs>
<clipPath id="clip0_12_573">
<rect width="24" height="24" fill="white" transform="translate(-0.000244141 0.00012207)"/>
</clipPath>
</defs>
</svg>
