<svg width="24" height="24" viewBox="0 0 24 24" fill="none" xmlns="http://www.w3.org/2000/svg">
<g clip-path="url(#clip0_12_570)">
<rect width="24" height="24" transform="translate(-0.000244141 0.00012207)" fill="white" fill-opacity="0.01"/>
<path d="M14.8566 17.0818C16.7512 16.8571 18.5781 16.4117 20.3109 15.772C18.8741 14.1771 17.9996 12.0658 17.9996 9.75012V9.04931C17.9997 9.03293 17.9998 9.01653 17.9998 9.00012C17.9998 5.68641 15.3135 3.00012 11.9998 3.00012C8.68605 3.00012 5.99976 5.68641 5.99976 9.00012L5.99956 9.75012C5.99956 12.0658 5.12503 14.1771 3.68823 15.772C5.42116 16.4117 7.24819 16.8572 9.14289 17.0819M14.8566 17.0818C13.9197 17.193 12.9663 17.2501 11.9996 17.2501C11.0329 17.2501 10.0796 17.193 9.14289 17.0819M14.8566 17.0818C14.9496 17.3712 14.9998 17.6798 14.9998 18.0001C14.9998 19.657 13.6566 21.0001 11.9998 21.0001C10.3429 21.0001 8.99976 19.657 8.99976 18.0001C8.99976 17.6798 9.04995 17.3713 9.14289 17.0819" stroke="#141414" stroke-width="1.5" stroke-linecap="round" stroke-linejoin="round"/>
</g>
<defs>
<clipPath id="clip0_12_570">
<rect width="24" height="24" fill="white" transform="translate(-0.000244141 0.00012207)"/>
</clipPath>
</defs>
</svg>
