<svg width="16" height="16" viewBox="0 0 16 16" fill="none" xmlns="http://www.w3.org/2000/svg">
<path fill-rule="evenodd" clip-rule="evenodd" d="M7.00002 2.5002C4.51476 2.5002 2.50005 4.51491 2.50005 7.00018C2.50005 9.48545 4.51476 11.5002 7.00002 11.5002C8.2428 11.5002 9.3671 10.997 10.182 10.1821C10.9969 9.36726 11.5 8.24295 11.5 7.00018C11.5 4.51491 9.48529 2.5002 7.00002 2.5002ZM1.50005 7.00018C1.50005 3.96263 3.96247 1.50021 7.00002 1.50021C10.0376 1.50021 12.5 3.96263 12.5 7.00018C12.5 8.33872 12.0213 9.5662 11.2266 10.5197L14.3535 13.6466C14.5488 13.8418 14.5488 14.1584 14.3535 14.3537C14.1583 14.549 13.8417 14.549 13.6464 14.3537L10.5195 11.2268C9.56605 12.0215 8.33857 12.5001 7.00002 12.5001C3.96247 12.5001 1.50005 10.0377 1.50005 7.00018Z" fill="#A7A7A7"/>
</svg>
