<svg width="20" height="20" viewBox="0 0 20 20" fill="none" xmlns="http://www.w3.org/2000/svg">
<path d="M7.99461 3.28344C8.06995 2.83139 8.46106 2.50006 8.91935 2.50006H11.081C11.5393 2.50006 11.9304 2.83139 12.0057 3.28344L12.1837 4.35098C12.2356 4.66268 12.4439 4.92232 12.7204 5.07536C12.7822 5.10958 12.8433 5.14492 12.9037 5.18137C13.1745 5.34493 13.504 5.39578 13.8003 5.28478L14.8143 4.90487C15.2435 4.7441 15.726 4.91715 15.9551 5.31404L17.0359 7.18607C17.2651 7.58296 17.1737 8.08734 16.8199 8.37861L15.9829 9.06762C15.7392 9.26829 15.6183 9.57816 15.6242 9.89383C15.6248 9.92916 15.6252 9.96457 15.6252 10.0001C15.6252 10.0355 15.6248 10.0709 15.6242 10.1063C15.6183 10.422 15.7392 10.7318 15.9829 10.9325L16.8199 11.6215C17.1737 11.9128 17.2651 12.4172 17.0359 12.814L15.9551 14.6861C15.726 15.083 15.2435 15.256 14.8143 15.0952L13.8003 14.7153C13.504 14.6043 13.1745 14.6552 12.9037 14.8187C12.8433 14.8552 12.7822 14.8905 12.7204 14.9248C12.4439 15.0778 12.2356 15.3374 12.1837 15.6491L12.0057 16.7167C11.9304 17.1687 11.5393 17.5001 11.081 17.5001H8.91935C8.46106 17.5001 8.06995 17.1687 7.99461 16.7167L7.81668 15.6491C7.76473 15.3374 7.55642 15.0778 7.27995 14.9248C7.21814 14.8905 7.15704 14.8552 7.09668 14.8188C6.82581 14.6552 6.49637 14.6043 6.20007 14.7153L5.18601 15.0952C4.75685 15.256 4.27436 15.083 4.04522 14.6861L2.9644 12.8141C2.73526 12.4172 2.82663 11.9128 3.18045 11.6215L4.01741 10.9325C4.26117 10.7318 4.382 10.422 4.37615 10.1063C4.3755 10.071 4.37517 10.0355 4.37517 10.0001C4.37517 9.96458 4.3755 9.92917 4.37615 9.89385C4.382 9.57817 4.26117 9.2683 4.01741 9.06764L3.18045 8.37862C2.82663 8.08735 2.73525 7.58297 2.9644 7.18608L4.04522 5.31405C4.27436 4.91716 4.75685 4.74411 5.18601 4.90489L6.20006 5.28478C6.49636 5.39579 6.8258 5.34494 7.09667 5.18138C7.15703 5.14493 7.21813 5.10958 7.27995 5.07536C7.55642 4.92232 7.76473 4.66268 7.81668 4.35098L7.99461 3.28344Z" stroke="#141414" stroke-width="1.5" stroke-linecap="round" stroke-linejoin="round"/>
<path d="M12.5 9.99999C12.5 11.3807 11.3807 12.5 9.99998 12.5C8.61926 12.5 7.49998 11.3807 7.49998 9.99999C7.49998 8.61928 8.61926 7.49999 9.99998 7.49999C11.3807 7.49999 12.5 8.61928 12.5 9.99999Z" stroke="#141414" stroke-width="1.5" stroke-linecap="round" stroke-linejoin="round"/>
</svg>
