<svg width="24" height="24" viewBox="0 0 24 24" fill="none" xmlns="http://www.w3.org/2000/svg">
<g clip-path="url(#clip0_12_567)">
<rect width="24" height="24" transform="translate(-0.000244141)" fill="white" fill-opacity="0.01"/>
<path d="M11.9998 21C16.1923 21 19.7153 18.1332 20.7155 14.2529M11.9998 21C7.80718 21 4.28418 18.1332 3.28405 14.2529M11.9998 21C14.485 21 16.4998 16.9706 16.4998 12C16.4998 7.02944 14.485 3 11.9998 3M11.9998 21C9.51447 21 7.49976 16.9706 7.49976 12C7.49976 7.02944 9.51447 3 11.9998 3M11.9998 3C15.3649 3 18.2988 4.84694 19.8428 7.58245M11.9998 3C8.63456 3 5.70075 4.84694 4.15668 7.58245M19.8428 7.58245C17.7395 9.40039 14.998 10.5 11.9998 10.5C9.00148 10.5 6.26003 9.40039 4.15668 7.58245M19.8428 7.58245C20.5794 8.88743 20.9998 10.3946 20.9998 12C20.9998 12.778 20.901 13.5329 20.7155 14.2529M20.7155 14.2529C18.1331 15.6847 15.1617 16.5 11.9998 16.5C8.83786 16.5 5.86638 15.6847 3.28405 14.2529M3.28405 14.2529C3.09847 13.5329 2.99976 12.778 2.99976 12C2.99976 10.3946 3.42008 8.88743 4.15668 7.58245" stroke="#141414" stroke-width="1.5" stroke-linecap="round" stroke-linejoin="round"/>
</g>
<defs>
<clipPath id="clip0_12_567">
<rect width="24" height="24" fill="white" transform="translate(-0.000244141)"/>
</clipPath>
</defs>
</svg>
